<svg width="100" height="130" viewBox="0 0 100 130" fill="none" xmlns="http://www.w3.org/2000/svg">
<g id="wrapper">
<path id="arrow" d="M52 20C52 18.8954 51.1046 18 50 18C48.8954 18 48 18.8954 48 20L52 20ZM48.5858 106.414C49.3668 107.195 50.6332 107.195 51.4142 106.414L64.1421 93.6863C64.9232 92.9052 64.9232 91.6389 64.1421 90.8579C63.3611 90.0768 62.0948 90.0768 61.3137 90.8579L50 102.172L38.6863 90.8579C37.9052 90.0768 36.6389 90.0768 35.8579 90.8579C35.0768 91.6389 35.0768 92.9052 35.8579 93.6863L48.5858 106.414ZM48 20L48 105H52L52 20L48 20Z" fill="white"/>
<rect x="1.5" y="1.5" width="97" height="127" rx="29.5" stroke="white" stroke-width="3"/>
</g>
</svg>
