<svg width="1368" height="411" viewBox="0 0 1368 411" fill="none" xmlns="http://www.w3.org/2000/svg">
<g id="Desktop - 2" clip-path="url(#clip0_3_4)">
<g id="MARLENA" filter="url(#filter0_d_3_4)">
<path d="M65.296 38.032H62.832V117.664H65.296V118H53.312V117.664H55.776V39.04L34.72 107.024L38.192 118H31.136L6.72 39.04V105.12C6.72 111.84 11.872 117.328 18.592 117.664V118H3.92V117.664H6.384V38.032H3.92V37.584H13.328L34.608 106.464L55.776 37.584H65.296V38.032ZM162.642 117.664H165.218V118H155.698L147.522 91.344H126.13L121.426 112.288L120.194 117.664H126.018V118H114.034V117.664C117.282 117.664 120.194 115.424 121.09 112.288L134.866 50.352L130.834 37.584H138.002L162.642 117.664ZM126.13 91.008H147.41L135.09 51.136L126.13 91.008ZM256.835 117.664H259.411V118H247.315V117.664H249.779L236.787 78.352C229.507 78.464 223.683 84.4 223.683 91.68L223.571 117.664H226.035V118H214.051V117.664H216.515V38.032H214.051V37.584H236.899C241.827 37.696 246.531 39.488 250.115 42.848C254.483 46.656 256.835 52.144 256.835 57.968C256.835 63.792 254.483 69.28 250.115 73.088C246.755 76.224 242.499 78.016 237.907 78.24L244.515 80.48L256.835 117.664ZM236.899 78.016C240.035 78.016 243.059 76.672 245.411 74.544C248.211 72.08 249.779 68.608 249.891 64.912V51.024C249.779 47.328 248.211 43.856 245.411 41.392C243.059 39.264 240.035 38.032 236.899 38.032H223.571V89.104C224.803 82.72 230.291 78.016 236.899 78.016ZM354.565 105.12H354.901V118H312.117V117.664H314.581V38.032H312.117V37.584H321.637V117.664H342.693C349.413 117.328 354.565 111.84 354.565 105.12ZM438.243 38.032H417.187V77.68H430.627C434.771 77.344 438.131 73.872 438.131 69.728H438.467V85.968H438.131C438.131 81.712 434.771 78.24 430.627 78.016H417.187V117.664H438.243C444.963 117.328 450.115 111.84 450.115 105.12H450.451V118H407.667V117.664H410.131V38.032H407.667V37.584H450.451V50.576H450.115C450.115 43.856 444.963 38.368 438.243 38.032ZM544.545 37.584H559.217V38.032H556.753V43.296V118H549.809L506.017 38.48V105.12C506.017 111.84 511.169 117.328 517.889 117.664V118H503.217V117.664H505.681V38.032H503.217V37.584H512.625L556.305 117.104V50.464C556.305 43.856 551.153 38.368 544.545 38.032V37.584ZM656.689 117.664H659.265V118H649.745L641.569 91.344H620.177L615.473 112.288L614.241 117.664H620.065V118H608.081V117.664C611.329 117.664 614.241 115.424 615.137 112.288L628.913 50.352L624.881 37.584H632.049L656.689 117.664ZM620.177 91.008H641.457L629.137 51.136L620.177 91.008Z" fill="white"/>
</g>
<g id="SZCZEPANSKA" filter="url(#filter1_d_3_4)">
<path d="M10.416 286.192C9.072 287.536 8.064 290.672 8.624 293.92C9.072 296.384 10.976 298.4 12.432 299.632L40.656 323.264C41.216 323.824 46.48 328.752 46.928 337.376C47.264 343.424 44.912 349.472 40.656 353.728C36.736 357.648 31.584 359.888 25.984 360H25.872H25.648C25.536 360 25.536 360 25.424 360C25.312 360 25.2 360 25.2 360H24.752C20.272 359.888 15.904 358.432 12.32 355.632C11.536 355.072 10.416 354.736 9.408 354.736C6.496 354.736 4.256 356.976 4.256 359.888H3.92V338.496H4.256C4.256 339.392 4.256 340.176 4.368 341.072C4.928 345.776 7.056 350.144 10.416 353.504C10.528 353.616 10.64 353.728 10.752 353.84H10.864C10.976 353.952 10.976 354.064 11.088 354.176H11.2C11.312 354.288 11.424 354.4 11.536 354.512C11.536 354.512 11.536 354.512 11.648 354.512C11.648 354.624 11.76 354.736 11.872 354.848H11.984C15.568 357.872 20.048 359.552 24.752 359.664H25.2C25.312 359.664 25.536 359.664 25.648 359.664H25.872H25.984C30.464 359.552 34.608 357.76 37.632 354.624C40.992 351.376 42.784 347.008 42.784 342.304C42.784 337.712 40.992 333.344 37.632 330.096C37.408 329.872 37.184 329.648 36.96 329.424L36.064 328.64C31.36 324.72 8.512 305.568 8.288 305.344C4.928 302.544 3.696 297.952 5.152 293.92V293.808C6.272 290.784 7.952 288.208 10.192 285.968C12.32 283.84 14.784 282.16 17.472 281.152C20.16 280.032 22.96 279.584 25.76 279.584C30.464 279.696 34.832 281.264 38.528 284.064C39.312 284.624 40.32 284.96 41.44 284.96C44.24 284.96 46.592 282.608 46.592 279.808H46.928V301.2H46.592C46.592 295.488 44.352 290.224 40.32 286.192C40.32 286.08 40.208 285.968 40.096 285.856C39.984 285.856 39.984 285.744 39.984 285.744C39.872 285.744 39.76 285.632 39.76 285.52C39.648 285.52 39.536 285.408 39.536 285.408C39.424 285.296 39.424 285.296 39.312 285.184C39.312 285.184 39.2 285.072 39.088 285.072C39.088 284.96 39.088 284.96 38.976 284.96C38.864 284.848 38.416 284.4 38.304 284.4C34.72 281.6 30.352 280.032 25.76 280.032C22.96 279.92 20.272 280.48 17.584 281.488C14.896 282.496 12.544 284.064 10.416 286.192ZM126.569 359.664C133.177 359.328 138.441 353.84 138.441 347.12H138.777V360H99.6888L131.609 280.032H111.897C105.289 280.368 100.137 285.856 100.137 292.576H99.6888V279.584H138.889L106.857 359.664H126.569ZM252.221 354.064C258.157 350.48 262.973 345.552 266.445 339.616L266.669 339.84C263.309 345.776 258.381 350.816 252.445 354.4C246.397 357.984 239.341 360 232.285 360H231.389C226.013 360 220.749 358.88 215.821 356.752C211.117 354.736 206.861 351.824 203.165 348.128C199.581 344.432 196.669 340.176 194.653 335.36C192.637 330.432 191.629 325.28 191.629 319.792C191.629 314.416 192.637 309.152 194.653 304.224C196.669 299.52 199.581 295.264 203.165 291.568C206.861 287.872 211.117 284.96 215.821 282.944C220.749 280.816 226.013 279.696 231.389 279.584H232.285C240.573 279.696 248.637 282.384 255.469 287.312C258.717 289.664 261.629 292.464 263.981 295.712C266.445 298.96 268.349 302.544 269.693 306.464L269.805 306.688H263.085V306.576C260.845 298.96 256.813 292.352 251.325 287.648C245.725 282.72 239.117 280.144 232.285 280.032H231.389C222.653 280.144 214.365 284.288 208.205 291.792C202.045 299.296 198.573 309.264 198.573 319.792C198.573 330.432 202.045 340.4 208.205 347.904C214.365 355.296 222.653 359.552 231.389 359.664H232.173C239.341 359.552 246.173 357.648 252.221 354.064ZM349.387 359.664C355.995 359.328 361.259 353.84 361.259 347.12H361.595V360H322.507L354.427 280.032H334.715C328.107 280.368 322.955 285.856 322.955 292.576H322.507V279.584H361.707L329.675 359.664H349.387ZM445.024 280.032H423.968V319.68H437.408C441.552 319.344 444.912 315.872 444.912 311.728H445.248V327.968H444.912C444.912 323.712 441.552 320.24 437.408 320.016H423.968V359.664H445.024C451.744 359.328 456.896 353.84 456.896 347.12H457.232V360H414.448V359.664H416.912V280.032H414.448V279.584H457.232V292.576H456.896C456.896 285.856 451.744 280.368 445.024 280.032ZM559.502 288.768C563.758 293.696 566.222 299.968 566.222 306.576C566.222 313.072 563.758 319.344 559.502 324.272C557.038 327.072 554.014 329.312 550.654 330.88C547.182 332.56 543.486 333.344 539.566 333.344C539.454 333.344 539.342 333.456 539.342 333.456C533.854 333.456 528.814 331.328 525.006 327.52C522.094 324.608 520.19 321.024 519.518 317.104V359.664H521.982V360.112H509.998V359.664H512.462V280.032H509.998V279.696C509.998 279.696 539.454 279.696 539.566 279.696C543.486 279.696 547.182 280.48 550.654 282.16C554.014 283.728 557.038 285.968 559.502 288.768ZM559.166 313.52V299.52C559.054 294.368 557.038 289.44 553.342 285.856C549.646 282.16 544.718 280.144 539.566 280.032C539.454 280.032 539.342 280.032 539.342 280.032H519.518V313.408C519.63 324.272 528.478 333.008 539.342 333.008H539.566C544.718 333.008 549.646 330.88 553.342 327.184C557.038 323.6 559.054 318.672 559.166 313.52ZM663.689 359.664H666.265V360H656.745L648.569 333.344H627.177L622.473 354.288L621.241 359.664H627.065V360H615.081V359.664C618.329 359.664 621.241 357.424 622.137 354.288L635.913 292.352L631.881 279.584H639.049L663.689 359.664ZM627.177 333.008H648.457L636.137 293.136L627.177 333.008ZM756.426 279.584H771.098V280.032H768.634V285.296V360H761.69L717.898 280.48V347.12C717.898 353.84 723.05 359.328 729.77 359.664V360H715.098V359.664H717.562V280.032H715.098V279.584H724.506L768.186 359.104V292.464C768.186 285.856 763.034 280.368 756.426 280.032V279.584ZM830.379 286.192C829.035 287.536 828.027 290.672 828.587 293.92C829.035 296.384 830.939 298.4 832.395 299.632L860.619 323.264C861.179 323.824 866.443 328.752 866.891 337.376C867.227 343.424 864.875 349.472 860.619 353.728C856.699 357.648 851.547 359.888 845.947 360H845.835H845.611C845.499 360 845.499 360 845.387 360C845.275 360 845.163 360 845.163 360H844.715C840.235 359.888 835.867 358.432 832.283 355.632C831.499 355.072 830.379 354.736 829.371 354.736C826.459 354.736 824.219 356.976 824.219 359.888H823.883V338.496H824.219C824.219 339.392 824.219 340.176 824.331 341.072C824.891 345.776 827.019 350.144 830.379 353.504C830.491 353.616 830.603 353.728 830.715 353.84H830.827C830.939 353.952 830.939 354.064 831.051 354.176H831.163C831.275 354.288 831.387 354.4 831.499 354.512C831.499 354.512 831.499 354.512 831.611 354.512C831.611 354.624 831.723 354.736 831.835 354.848H831.947C835.531 357.872 840.011 359.552 844.715 359.664H845.163C845.275 359.664 845.499 359.664 845.611 359.664H845.835H845.947C850.427 359.552 854.571 357.76 857.595 354.624C860.955 351.376 862.747 347.008 862.747 342.304C862.747 337.712 860.955 333.344 857.595 330.096C857.371 329.872 857.147 329.648 856.923 329.424L856.027 328.64C851.323 324.72 828.475 305.568 828.251 305.344C824.891 302.544 823.659 297.952 825.115 293.92V293.808C826.235 290.784 827.915 288.208 830.155 285.968C832.283 283.84 834.747 282.16 837.435 281.152C840.123 280.032 842.923 279.584 845.723 279.584C850.427 279.696 854.795 281.264 858.491 284.064C859.275 284.624 860.283 284.96 861.403 284.96C864.203 284.96 866.555 282.608 866.555 279.808H866.891V301.2H866.555C866.555 295.488 864.315 290.224 860.283 286.192C860.283 286.08 860.171 285.968 860.059 285.856C859.947 285.856 859.947 285.744 859.947 285.744C859.835 285.744 859.723 285.632 859.723 285.52C859.611 285.52 859.499 285.408 859.499 285.408C859.387 285.296 859.387 285.296 859.275 285.184C859.275 285.184 859.163 285.072 859.051 285.072C859.051 284.96 859.051 284.96 858.939 284.96C858.827 284.848 858.379 284.4 858.267 284.4C854.683 281.6 850.315 280.032 845.723 280.032C842.923 279.92 840.235 280.48 837.547 281.488C834.859 282.496 832.507 284.064 830.379 286.192ZM962.435 359.664H965.011V360H952.915V359.664H955.267L935.555 320.24L929.171 329.872V359.664H931.635V360H919.651V359.664H922.115V280.032H919.651V279.584H929.171V329.2L958.851 284.736C958.963 284.512 959.411 283.728 959.411 282.72C959.411 281.152 956.947 280.032 955.267 280.032V279.584H962.659L936.003 319.68H942.387L962.435 359.664ZM1062.3 359.664H1064.87V360H1055.35L1047.18 333.344H1025.78L1021.08 354.288L1019.85 359.664H1025.67V360H1013.69V359.664C1016.94 359.664 1019.85 357.424 1020.74 354.288L1034.52 292.352L1030.49 279.584H1037.66L1062.3 359.664ZM1025.78 333.008H1047.06L1034.74 293.136L1025.78 333.008Z" fill="white"/>
</g>
<g id="FOTO-WIDOK" filter="url(#filter2_d_3_4)">
<path d="M13.68 192.536H32.016V198.104H31.872C31.872 195.224 29.664 192.872 26.784 192.728H17.76V209.72H23.52C25.296 209.624 26.736 208.088 26.736 206.312H26.88V213.272H26.736C26.736 211.448 25.296 209.96 23.52 209.864H17.76V226.856H18.816V227H13.68V226.856H14.736V192.728H13.68V192.536ZM136.699 203.096C137.563 205.208 138.043 207.464 138.043 209.768C138.043 212.12 137.563 214.328 136.699 216.44C135.835 218.504 134.587 220.328 133.051 221.912C131.467 223.496 129.643 224.744 127.627 225.608C125.515 226.52 123.307 227 121.003 227H120.619C118.315 227 116.059 226.52 113.947 225.608C111.931 224.744 110.107 223.496 108.523 221.912C106.987 220.328 105.739 218.504 104.875 216.44C104.011 214.328 103.579 212.12 103.579 209.768C103.579 207.464 104.011 205.208 104.875 203.096C105.739 201.08 106.987 199.256 108.523 197.672C110.107 196.088 111.931 194.84 113.947 193.928C116.059 193.064 118.315 192.584 120.619 192.536H121.003C123.307 192.584 125.515 193.064 127.627 193.928C129.643 194.84 131.467 196.088 133.051 197.672C134.587 199.256 135.835 201.08 136.699 203.096ZM130.891 221.816C133.531 218.552 135.019 214.328 135.019 209.768C135.019 205.256 133.531 200.984 130.891 197.768C128.251 194.552 124.747 192.776 120.955 192.728H120.619C116.875 192.776 113.323 194.552 110.683 197.768C108.043 200.984 106.555 205.256 106.555 209.768C106.555 214.328 108.043 218.552 110.683 221.816C113.323 224.984 116.875 226.808 120.619 226.856H120.955C124.747 226.808 128.251 224.984 130.891 221.816ZM215.134 192.536H233.566V198.104H233.422C233.422 195.224 231.166 192.872 228.334 192.728H225.838V226.856H226.894V227H221.758V226.856H222.814V192.728H220.318C217.486 192.872 215.278 195.224 215.278 198.104H215.134V192.536ZM343.778 203.096C344.642 205.208 345.122 207.464 345.122 209.768C345.122 212.12 344.642 214.328 343.778 216.44C342.914 218.504 341.666 220.328 340.13 221.912C338.546 223.496 336.722 224.744 334.706 225.608C332.594 226.52 330.386 227 328.082 227H327.698C325.394 227 323.138 226.52 321.026 225.608C319.01 224.744 317.186 223.496 315.602 221.912C314.066 220.328 312.818 218.504 311.954 216.44C311.09 214.328 310.658 212.12 310.658 209.768C310.658 207.464 311.09 205.208 311.954 203.096C312.818 201.08 314.066 199.256 315.602 197.672C317.186 196.088 319.01 194.84 321.026 193.928C323.138 193.064 325.394 192.584 327.698 192.536H328.082C330.386 192.584 332.594 193.064 334.706 193.928C336.722 194.84 338.546 196.088 340.13 197.672C341.666 199.256 342.914 201.08 343.778 203.096ZM337.97 221.816C340.61 218.552 342.098 214.328 342.098 209.768C342.098 205.256 340.61 200.984 337.97 197.768C335.33 194.552 331.826 192.776 328.034 192.728H327.698C323.954 192.776 320.402 194.552 317.762 197.768C315.122 200.984 313.634 205.256 313.634 209.768C313.634 214.328 315.122 218.552 317.762 221.816C320.402 224.984 323.954 226.808 327.698 226.856H328.034C331.826 226.808 335.33 224.984 337.97 221.816ZM433.925 215.384H422.213V214.904H433.925V215.384ZM541.369 192.536H544.057V192.728C542.665 192.728 541.417 193.64 541.033 195.032L535.369 227H532.345L526.489 204.968L522.553 227H519.577L510.409 192.728H509.353V192.536H513.385L522.457 226.568L526.393 204.584L523.225 192.728H522.121V192.536H532.873V192.728H528.649L528.217 195.032L527.689 198.152L535.273 226.568L540.889 194.984L541.273 192.728H538.921V192.536H541.321H541.369ZM526.249 192.728L527.593 197.768L528.073 194.984L528.505 192.728H526.249ZM625.304 192.728H624.248V226.856H625.304V227H620.168V226.856H621.224V192.728H620.168V192.536H625.304V192.728ZM723.176 203.096C724.088 205.208 724.52 207.464 724.52 209.768C724.52 212.12 724.088 214.328 723.176 216.44C722.312 218.504 721.112 220.328 719.528 221.912C717.944 223.496 716.12 224.744 714.104 225.608C711.992 226.52 709.784 227 707.48 227H707.192V227.048H703.112V226.856H704.168V192.728H703.112V192.536H707.48C709.784 192.584 711.992 193.064 714.104 193.928C716.12 194.84 717.944 196.088 719.528 197.672C721.112 199.256 722.312 201.08 723.176 203.096ZM717.368 221.816C720.056 218.552 721.496 214.328 721.496 209.768C721.496 205.256 720.056 200.984 717.368 197.768C714.728 194.552 711.224 192.776 707.48 192.728H707.192V226.856H707.48C711.224 226.808 714.728 224.984 717.368 221.816ZM834.709 203.096C835.573 205.208 836.053 207.464 836.053 209.768C836.053 212.12 835.573 214.328 834.709 216.44C833.845 218.504 832.597 220.328 831.061 221.912C829.477 223.496 827.653 224.744 825.637 225.608C823.525 226.52 821.317 227 819.013 227H818.629C816.325 227 814.069 226.52 811.957 225.608C809.941 224.744 808.117 223.496 806.533 221.912C804.997 220.328 803.749 218.504 802.885 216.44C802.021 214.328 801.589 212.12 801.589 209.768C801.589 207.464 802.021 205.208 802.885 203.096C803.749 201.08 804.997 199.256 806.533 197.672C808.117 196.088 809.941 194.84 811.957 193.928C814.069 193.064 816.325 192.584 818.629 192.536H819.013C821.317 192.584 823.525 193.064 825.637 193.928C827.653 194.84 829.477 196.088 831.061 197.672C832.597 199.256 833.845 201.08 834.709 203.096ZM828.901 221.816C831.541 218.552 833.029 214.328 833.029 209.768C833.029 205.256 831.541 200.984 828.901 197.768C826.261 194.552 822.757 192.776 818.965 192.728H818.629C814.885 192.776 811.333 194.552 808.693 197.768C806.053 200.984 804.565 205.256 804.565 209.768C804.565 214.328 806.053 218.552 808.693 221.816C811.333 224.984 814.885 226.808 818.629 226.856H818.965C822.757 226.808 826.261 224.984 828.901 221.816ZM931.48 226.856H932.584V227H927.4V226.856H928.408L919.96 209.96L917.224 214.088V226.856H918.28V227H913.144V226.856H914.2V192.728H913.144V192.536H917.224V213.8L929.944 194.744C929.992 194.648 930.184 194.312 930.184 193.88C930.184 193.208 929.128 192.728 928.408 192.728V192.536H931.576L920.152 209.72H922.888L931.48 226.856Z" fill="white"/>
</g>
</g>
<defs>
<filter id="filter0_d_3_4" x="-0.0800171" y="35.584" width="663.345" height="88.416" filterUnits="userSpaceOnUse" color-interpolation-filters="sRGB">
<feFlood flood-opacity="0" result="BackgroundImageFix"/>
<feColorMatrix in="SourceAlpha" type="matrix" values="0 0 0 0 0 0 0 0 0 0 0 0 0 0 0 0 0 0 127 0" result="hardAlpha"/>
<feOffset dy="2"/>
<feGaussianBlur stdDeviation="2"/>
<feComposite in2="hardAlpha" operator="out"/>
<feColorMatrix type="matrix" values="0 0 0 0 0 0 0 0 0 0 0 0 0 0 0 0 0 0 0.25 0"/>
<feBlend mode="normal" in2="BackgroundImageFix" result="effect1_dropShadow_3_4"/>
<feBlend mode="normal" in="SourceGraphic" in2="effect1_dropShadow_3_4" result="shape"/>
</filter>
<filter id="filter1_d_3_4" x="-0.304016" y="277.584" width="1069.18" height="88.528" filterUnits="userSpaceOnUse" color-interpolation-filters="sRGB">
<feFlood flood-opacity="0" result="BackgroundImageFix"/>
<feColorMatrix in="SourceAlpha" type="matrix" values="0 0 0 0 0 0 0 0 0 0 0 0 0 0 0 0 0 0 127 0" result="hardAlpha"/>
<feOffset dy="2"/>
<feGaussianBlur stdDeviation="2"/>
<feComposite in2="hardAlpha" operator="out"/>
<feColorMatrix type="matrix" values="0 0 0 0 0 0 0 0 0 0 0 0 0 0 0 0 0 0 0.25 0"/>
<feBlend mode="normal" in2="BackgroundImageFix" result="effect1_dropShadow_3_4"/>
<feBlend mode="normal" in="SourceGraphic" in2="effect1_dropShadow_3_4" result="shape"/>
</filter>
<filter id="filter2_d_3_4" x="9.67999" y="190.536" width="926.904" height="42.512" filterUnits="userSpaceOnUse" color-interpolation-filters="sRGB">
<feFlood flood-opacity="0" result="BackgroundImageFix"/>
<feColorMatrix in="SourceAlpha" type="matrix" values="0 0 0 0 0 0 0 0 0 0 0 0 0 0 0 0 0 0 127 0" result="hardAlpha"/>
<feOffset dy="2"/>
<feGaussianBlur stdDeviation="2"/>
<feComposite in2="hardAlpha" operator="out"/>
<feColorMatrix type="matrix" values="0 0 0 0 0 0 0 0 0 0 0 0 0 0 0 0 0 0 0.25 0"/>
<feBlend mode="normal" in2="BackgroundImageFix" result="effect1_dropShadow_3_4"/>
<feBlend mode="normal" in="SourceGraphic" in2="effect1_dropShadow_3_4" result="shape"/>
</filter>
<clipPath id="clip0_3_4">
<rect width="1368" height="411" fill="white"/>
</clipPath>
</defs>
</svg>
